# xmcd
#
# Track frame offsets:
#	150
#	8920
#	20285
#	29680
#	39092
#	50442
#	65005
#	80220
#	93605
#	103705
#	119322
#	129187
#	140095
#	152095
#
# Disc length: 2258 seconds
#
# Revision: 1
# Processed by: cddbd v1.5.1PL0 Copyright (c) Steve Scherf et al.
# Submitted via: CDex 1.50Beta5
#
DISCID=ba08d00e
DTITLE=チェット・アトキンス - チェット・アトキンス・グレイテスト・ヒッツ
DYEAR=2001
DGENRE=Folk
TTITLE0=チェット・アトキンス/カントリー・ジェントルマン
TTITLE1=チェット・アトキンス/レインボウ
TTITLE2=チェット・アトキンス/ヤケティ・アックス
TTITLE3=チェット・アトキンス/貨物列車
TTITLE4=チェット・アトキンス/峠の幌馬車
TTITLE5=チェット・アトキンス/イエスタデイ
TTITLE6=チェット・アトキンス/ハワイアン・ウェディング・ソング
TTITLE7=チェット・アトキンス/虹の彼方に
TTITLE8=チェット・アトキンス/チャップリン・イン・ニュー・シューズ
TTITLE9=チェット・アトキンス/枯葉
TTITLE10=チェット・アトキンス/ジェリーズ・ブレイクダウン
TTITLE11=ナッシュビル・ストリング・バンド/恋の終列車
TTITLE12=ナッシュビル・ストリング・バンド/テネシー・ワルツ
TTITLE13=チェット・アトキンス/夢で会いましょう
EXTD=
EXTT0=
EXTT1=
EXTT2=
EXTT3=
EXTT4=
EXTT5=
EXTT6=
EXTT7=
EXTT8=
EXTT9=
EXTT10=
EXTT11=
EXTT12=
EXTT13=
PLAYORDER=
